<?xml version="1.0" encoding="utf-8"?>
<!-- Generator: Adobe Illustrator 24.0.3, SVG Export Plug-In . SVG Version: 6.00 Build 0)  -->
<svg version="1.1" id="Layer_1" xmlns="http://www.w3.org/2000/svg" xmlns:xlink="http://www.w3.org/1999/xlink" x="0px" y="0px"
	 viewBox="0 0 144 252" style="enable-background:new 0 0 144 252;" xml:space="preserve">
<style type="text/css">
	.st0{fill:#F4DBB8;}
	.st1{fill:#CFD9E2;}
</style>
<path class="st0" d="M144.32,50.27c0,0-19.93-21.94-68.51-18.22c-9.79,1.76-36.04,4.51-48.78,29.97s8.23,47.6,27.03,55.83
	s70.23,23.51,90.26,39.37c0.05,15.87,0.12,94.33,0.12,94.33H0.2l0.12-23.82c0,0,26.13,23.31,68.24,22.72
	c3.53,0.2,55.83,2.21,63.27-38.66c2.55-13.45-1.57-32.64-27.03-45.77c-19.78-10.77-45.05-17.83-45.05-17.83s-45.63-14.69-59.55-33.1
	c0.1-21.35,0.12-74.24,0.12-74.24S24.29,11.1,74.24,9.92c20.76-0.98,45.59-0.59,70.2,9.21C144.41,31.25,144.32,50.27,144.32,50.27z"
	/>
<path class="st1" d="M144.41,31.25c0,0-22.18-26.62-75.08-17.29c-11.06,2.42-30.77,5.88-42.87,30.42
	c-3.46,7.95-1.73,20.05-1.73,20.05s-1.73,22.13,35.61,36.3s58.08,22.13,58.08,22.13s10.29,2.67,25.99,14.22
	c0,12.04-0.12,94.53-0.12,94.53s-16.92,15.79-53.04,19.93c-26.32-0.03-44.78,0-44.78,0s-19.5-1.47-46.18-12.87
	c-0.12-11.4,0-32.42,0-32.42s22.75,21.67,64.48,23.75c5.14,0.64,42.69,2.73,60.67-22.63c4.98-4.81,9.47-20.06,4.81-35.63
	c-4.65-15.57-24.72-26.56-42.21-33.5c-17.49-6.94-72.95-22.51-87.75-44.5c-0.12-22.95-0.05-71.1-0.05-71.1s14.94-16.83,33.4-23.1
	c16.37,0,110.78,0,110.78,0V31.25z"/>
</svg>
